<?xml version="1.0" encoding="utf-8"?>
<!-- Generator: Adobe Illustrator 22.0.1, SVG Export Plug-In . SVG Version: 6.00 Build 0)  -->
<svg version="1.1" id="Lager_1" xmlns="http://www.w3.org/2000/svg" xmlns:xlink="http://www.w3.org/1999/xlink" x="0px" y="0px"
	 viewBox="0 0 512 512" style="enable-background:new 0 0 512 512;" xml:space="preserve">
<style type="text/css">
	.st0{fill:#eee;}
	.st1{fill:#E8E8E8;}
	.st2{fill:#898890;}
	.st3{fill:#2222;}
	.st4{fill:#57565C;}
	.st5{fill:#C6C5CA;}
	.st6{fill:#ACABB1;}
	.st7{fill:#999;}
	.st8{fill:#FB3581;}
	.st9{fill:#fb3551;}
</style>
<g id="Driver_License-Id-License-Transport-Identification">
	<path class="st0" d="M496,112v288c0,17.7-14.3,32-32,32H48c-17.7,0-32-14.3-32-32V112H496z"/>
	<path class="st1" d="M496,96v16H16V96c0-17.7,14.3-32,32-32h416C481.7,64,496,78.3,496,96z"/>
	<path class="st0" d="M235.5,355.4l-21.9-9.8L192,336v-21.4c17-8,28.7-24,31.4-42.6h8.6c8.8,0,16-7.2,16-16c0-8.8-7.2-16-16-16h-8
		v-24c0-30.9-25.1-56-56-56s-56,25.1-56,56v24h-8c-8.8,0-16,7.2-16,16c0,8.8,7.2,16,16,16h8.6c2.6,18.6,14.4,34.6,31.4,42.6V336
		l-21.6,9.6l-21.9,9.8C83.2,363.1,72,380.2,72,399.2V416h192v-16.8C264,380.2,252.8,363.1,235.5,355.4z"/>
	<path class="st2" d="M248,383.2V400h-72l-14.6-49.4l6.6-6.6l24,8l5.6-22.4l21.9,9.8C236.8,347.1,248,364.2,248,383.2z"/>
	<path class="st3" d="M232,240c0,8.8-7.2,16-16,16h-16v-32h16C224.8,224,232,231.2,232,240z"/>
	<path class="st4" d="M208,200v16h-5.3c-11,0-20.6-7.5-23.3-18.2L176,184c0,17.7-14.3,32-32,32H96v-16c0-30.9,25.1-56,56-56
		S208,169.1,208,200z"/>
	<path class="st4" d="M197.6,329.6L192,352l-24-8l-8-16l16-8L197.6,329.6z"/>
	<path class="st5" d="M161.4,350.6L176,400h-48l14.6-49.4l9.4,9.4L161.4,350.6z"/>
	<path class="st6" d="M160,328l8,16l-6.6,6.6L152,360l-9.4-9.4L136,344l8-16H160z"/>
	<path class="st4" d="M144,328l-8,16l-24,8l-5.6-22.4L128,320L144,328z"/>
	<path class="st2" d="M142.6,350.6L128,400H56v-16.8c0-19,11.2-36.1,28.5-43.8l21.9-9.8L112,352l24-8L142.6,350.6z"/>
	<path class="st3" d="M104,224v32H88c-8.8,0-16-7.2-16-16s7.2-16,16-16H104z"/>
	<path class="st7" d="M176,296v24l-16,8h-16l-16-8v-24H176z"/>
	<path class="st3" d="M176,296v18.6c-15.2,7.3-32.8,7.3-48,0V296H176z"/>
	<path class="st7" d="M208,216v32c0,2.7-0.2,5.4-0.6,8c-2.6,18.6-14.4,34.6-31.4,42.6c-27.8,13.3-61.2,1.5-74.5-26.4
		c-2.4-5.1-4.1-10.6-4.9-16.2c-0.5-2.6-0.7-5.3-0.6-8v-32h48c17.7,0,32-14.3,32-32l3.4,13.8c2.7,10.7,12.3,18.1,23.3,18.2H208z"/>
	<path class="st8" d="M120,232h16v16h-16V232z"/>
	<path class="st8" d="M168,232h16v16h-16V232z"/>
	<path class="st9" d="M272,144h32v16h-32V144z"/>
	<path class="st9" d="M336,144h16v16h-16V144z"/>
	<path class="st9" d="M368,144h16v16h-16V144z"/>
	<path class="st9" d="M400,144h16v16h-16V144z"/>
	<path class="st9" d="M432,144h16v16h-16V144z"/>
	<path class="st9" d="M272,248h48v16h-48V248z"/>
	<g>
		<path class="st9" d="M336,216h32v16h-32V216z"/>
		<path class="st9" d="M384,216h64v16h-64V216z"/>
		<path class="st9" d="M336,248h112v16H336V248z"/>
		<path class="st9" d="M336,296h16v16h-16V296z"/>
		<path class="st9" d="M368,296h16v16h-16V296z"/>
		<path class="st9" d="M400,296h16v16h-16V296z"/>
		<path class="st9" d="M432,296h16v16h-16V296z"/>
		<path class="st9" d="M336,384h32v16h-32V384z"/>
		<path class="st9" d="M384,384h32v16h-32V384z"/>
		<path class="st9" d="M432,384h16v16h-16V384z"/>
	</g>
</g>
</svg>
