<?xml version="1.0" encoding="utf-8"?>
<!-- Generator: Adobe Illustrator 22.0.1, SVG Export Plug-In . SVG Version: 6.00 Build 0)  -->
<svg version="1.1" id="Lager_1" xmlns="http://www.w3.org/2000/svg" xmlns:xlink="http://www.w3.org/1999/xlink" x="0px" y="0px"
	 viewBox="0 0 1920 1080" style="enable-background:new 0 0 1920 1080;" xml:space="preserve">
<style type="text/css">
	.st0{opacity:0.4;fill:none;stroke:#5AFF45;stroke-miterlimit:10;}
	.st1{opacity:0.44;fill:none;stroke:#38F945;stroke-miterlimit:10;}
	.st2{opacity:0.82;fill:none;stroke:#F6F945;stroke-miterlimit:10;}
	.st3{opacity:0.56;fill:none;stroke:#0088E7;stroke-miterlimit:10;}
	.st4{opacity:0.58;fill:none;stroke:#0DEEFF;stroke-miterlimit:10;}
	.st5{opacity:0.56;fill:none;stroke:#FF10A4;stroke-miterlimit:10;}
	.st6{opacity:0.46;fill:none;stroke:#0DEEFF;stroke-miterlimit:10;}
	.st7{opacity:7.000000e-02;}
	.st8{opacity:0.17;fill:#ED1E79;}
	.st9{fill:#FFFFFF;stroke:#FB3585;stroke-width:20;stroke-miterlimit:10;}
	.st10{fill:#FB3585;}
	.st11{opacity:0.17;fill:#FB3585;}
	.st12{fill:none;stroke:#FB3585;stroke-width:20;stroke-miterlimit:10;}
	.st13{fill:#999999;}
	.st14{fill:none;stroke:#999999;stroke-width:2;stroke-miterlimit:10;}
	.st15{fill:#B3B3B3;}
	.st16{opacity:4.000000e-02;stroke:#ED1E79;stroke-miterlimit:10;}
</style>
<line class="st0" x1="155.1" y1="401" x2="155.1" y2="371.6"/>
<polygon class="st1" points="110.7,616.6 115.9,622.1 122.7,625.4 119.2,632 118.2,639.5 110.7,638.1 103.3,639.5 102.3,632 
	98.7,625.4 105.5,622.1 "/>
<polygon class="st2" points="1593.8,5 1599,10.5 1605.8,13.7 1602.2,20.4 1601.2,27.8 1593.8,26.5 1586.3,27.8 1585.3,20.4 
	1581.8,13.7 1588.6,10.5 "/>
<polygon class="st3" points="1783,964.8 1790.5,965.6 1797.8,963.8 1799.3,971.1 1803.4,977.5 1796.8,981.2 1792,987 1786.4,982 
	1779.4,979.2 1782.5,972.3 "/>
<circle class="st4" cx="690.9" cy="516.4" r="8.2"/>
<circle class="st5" cx="677" cy="799" r="8.2"/>
<circle class="st6" cx="1491" cy="411.1" r="25.6"/>
<path class="st7" d="M890.1,389.3c0,5.6,0.8,10.9,2.4,15.9H749v-31.8h143.4C891,378.4,890.1,383.7,890.1,389.3z"/>
<g>
	<circle class="st8" cx="704.6" cy="389.3" r="48.9"/>
	<circle class="st9" cx="704.6" cy="389.3" r="27.6"/>
	<polygon class="st10" points="700.8,373.4 716.6,389.3 700.8,405.2 	"/>
</g>
<g>
	<path class="st11" d="M987.6,389.3c0,5.6-0.9,10.9-2.6,15.9c-6.6,19.2-24.8,33-46.2,33c-21.4,0-39.6-13.8-46.2-33
		c-1.7-5-2.6-10.3-2.6-15.9c0-5.6,0.9-10.9,2.6-15.9c6.6-19.2,24.8-33,46.2-33c21.4,0,39.6,13.8,46.2,33
		C986.6,378.4,987.6,383.7,987.6,389.3z"/>
	<circle class="st12" cx="938.7" cy="389.3" r="27.6"/>
	<polygon class="st10" points="934.9,373.4 950.7,389.3 934.9,405.2 	"/>
</g>
<g>
	<path class="st7" d="M1113.2,389.3c0,5.8,1.5,11.2,4.3,15.9H984.9c1.7-5,2.6-10.3,2.6-15.9c0-5.6-0.9-10.9-2.6-15.9h132.6
		C1114.8,378.1,1113.2,383.5,1113.2,389.3z"/>
	<path class="st7" d="M1114.3,389.3c0,5.8,1.2,11.2,3.2,15.9c-2.7-4.7-4.3-10.1-4.3-15.9c0-5.8,1.5-11.2,4.3-15.9
		C1115.5,378.1,1114.3,383.5,1114.3,389.3z"/>
	<path class="st7" d="M1161,417v194.7h-31.8V416.9c4.7,2.7,10.1,4.3,15.9,4.3C1151,421.2,1156.4,419.6,1161,417z"/>
	<path class="st7" d="M1161,405.2V417c-4.7,2.7-10.1,4.2-15.9,4.2c-5.8,0-11.2-1.5-15.9-4.3v-11.8H1161z"/>
	<path class="st7" d="M1145.2,373.4v31.8h-27.7c-2.7-4.7-4.3-10.1-4.3-15.9c0-5.8,1.5-11.2,4.3-15.9H1145.2z"/>
	<path class="st7" d="M1117.5,405.2h11.8v11.8C1124.4,414.1,1120.3,410.1,1117.5,405.2z"/>
	<path class="st7" d="M1177.1,389.3c0,11.8-6.5,22.2-16,27.7v-11.8h-15.9v-31.8h-27.7c5.5-9.6,15.8-16,27.7-16
		C1162.8,357.3,1177.1,371.6,1177.1,389.3z"/>
	<g>
		<path class="st13" d="M1163.6,386.1l-17.5-14.8c-1.8-1.5-4.5-1.3-6.1,0.5l-14.8,17.5c-1.5,1.8-1.3,4.5,0.5,6.1l17.5,14.8
			c1.8,1.5,4.5,1.3,6.1-0.5l14.8-17.5C1165.6,390.3,1165.4,387.6,1163.6,386.1z M1142.2,398.6c-0.8,1-2.3,1.1-3.3,0.3l-1.4-1.2
			c-1-0.8-1.1-2.3-0.3-3.3l7.6-9c0.8-1,2.3-1.1,3.3-0.3l1.4,1.2c1,0.8,1.1,2.3,0.3,3.3L1142.2,398.6z"/>
		<path class="st14" d="M1163.4,386.1l-17.3-14.6c4-4.8,11.2-5.4,16-1.3C1166.9,374.2,1167.5,381.3,1163.4,386.1z"/>
		<g>
			<path class="st15" d="M1148.7,390.9l-6.5,7.7c-0.8,1-2.3,1.1-3.3,0.3l-1.4-1.2c-1-0.8-1.1-2.3-0.3-3.3l6.5-7.7
				c0,1.2,0.4,2.4,1.5,3.3C1146.2,390.9,1147.5,391.1,1148.7,390.9z"/>
			<path class="st15" d="M1149.9,389.6l-1.1,1.3c-1.2,0.2-2.5,0-3.5-0.9c-1-0.9-1.5-2.1-1.5-3.3l1.1-1.3c0.8-1,2.3-1.1,3.3-0.3
				l1.4,1.2C1150.6,387.1,1150.7,388.6,1149.9,389.6z"/>
			<path class="st15" d="M1148.7,390.9l1.1-1.3c0.8-1,0.7-2.5-0.3-3.3l-1.4-1.2c-1-0.8-2.5-0.7-3.3,0.3l-1.1,1.3
				c0-0.9,0.3-1.8,1-2.5c1.5-1.7,4.1-2,5.8-0.5c1.7,1.5,2,4.1,0.5,5.8C1150.4,390.3,1149.6,390.7,1148.7,390.9z"/>
		</g>
	</g>
</g>
<g>
	<path class="st7" d="M1117.5,627.5H728.7c-8.8,0-15.9-7.1-15.9-15.9l0,0c0-8.8,7.1-15.9,15.9-15.9h388.8
		c-2.7,4.7-4.3,10.1-4.3,15.9C1113.2,617.4,1114.8,622.8,1117.5,627.5z"/>
	<path class="st7" d="M1129.3,627.5h-11.8c-2.7-4.7-4.2-10.1-4.2-15.9c0-5.8,1.5-11.2,4.3-15.9h11.8V627.5z"/>
	<path class="st7" d="M1129.3,583.9v11.8h-11.8C1120.3,590.8,1124.4,586.8,1129.3,583.9z"/>
	<path class="st7" d="M1145.2,643.5c-11.8,0-22.2-6.5-27.7-16h11.8v-15.9h31.8v-27.7c9.6,5.5,16,15.8,16,27.7
		C1177.1,629.3,1162.8,643.5,1145.2,643.5z"/>
	<g>
		<path class="st13" d="M1148.4,630.1l14.8-17.5c1.5-1.8,1.3-4.5-0.5-6.1l-17.5-14.8c-1.8-1.5-4.5-1.3-6.1,0.5l-14.8,17.5
			c-1.5,1.8-1.3,4.5,0.5,6.1l17.5,14.8C1144.1,632.1,1146.8,631.9,1148.4,630.1z M1135.9,608.7c-1-0.8-1.1-2.3-0.3-3.3l1.2-1.4
			c0.8-1,2.3-1.1,3.3-0.3l9,7.6c1,0.8,1.1,2.3,0.3,3.3l-1.2,1.4c-0.8,1-2.3,1.1-3.3,0.3L1135.9,608.7z"/>
		<path class="st14" d="M1148.4,629.9l14.6-17.3c4.8,4,5.4,11.2,1.3,16C1160.3,633.3,1153.1,633.9,1148.4,629.9z"/>
		<g>
			<path class="st15" d="M1143.5,615.2l-7.7-6.5c-1-0.8-1.1-2.3-0.3-3.3l1.2-1.4c0.8-1,2.3-1.1,3.3-0.3l7.7,6.5
				c-1.2,0-2.4,0.4-3.3,1.5C1143.6,612.7,1143.3,614,1143.5,615.2z"/>
			<path class="st15" d="M1144.9,616.3l-1.3-1.1c-0.2-1.2,0-2.5,0.9-3.5c0.9-1,2.1-1.5,3.3-1.5l1.3,1.1c1,0.8,1.1,2.3,0.3,3.3
				l-1.2,1.4C1147.3,617,1145.9,617.1,1144.9,616.3z"/>
			<path class="st15" d="M1143.5,615.2l1.3,1.1c1,0.8,2.5,0.7,3.3-0.3l1.2-1.4c0.8-1,0.7-2.5-0.3-3.3l-1.3-1.1c0.9,0,1.8,0.3,2.5,1
				c1.7,1.5,2,4.1,0.5,5.8c-1.5,1.7-4.1,2-5.8,0.5C1144.2,616.9,1143.7,616.1,1143.5,615.2z"/>
		</g>
	</g>
	<path class="st7" d="M1161,639.3v47.8c0,8.8-7.1,15.9-15.9,15.9l0,0c-8.8,0-15.9-7.1-15.9-15.9v-47.8c4.7,2.7,10.1,4.3,15.9,4.3
		C1151,643.6,1156.4,642,1161,639.3z"/>
</g>
<path class="st7" d="M653.7,656.2H537.5c-25.9,0-47.1-21.2-47.1-47.1v0c0-25.9,21.2-47.1,47.1-47.1h116.2
	c25.9,0,47.1,21.2,47.1,47.1v0C700.8,635.1,679.6,656.2,653.7,656.2z"/>
<path class="st16" d="M349.1,250.8L349.1,250.8c-14.8,0-27-12.1-27-27v0c0-14.8,12.1-27,27-27h0c14.8,0,27,12.1,27,27v0
	C376,238.7,363.9,250.8,349.1,250.8z"/>
<path class="st7" d="M1462.2,533.4h-266.4c-15.8,0-28.8-13-28.8-28.8v0c0-15.8,13-28.8,28.8-28.8h266.4c15.8,0,28.8,13,28.8,28.8v0
	C1491,520.4,1478,533.4,1462.2,533.4z"/>
<path class="st16" d="M498.9,524.6L498.9,524.6c-14.8,0-27-12.1-27-27v0c0-14.8,12.1-27,27-27h0c14.8,0,27,12.1,27,27v0
	C525.9,512.5,513.7,524.6,498.9,524.6z"/>
<path class="st7" d="M1686.9,533.4h-136.6c-15.8,0-28.8-13-28.8-28.8v0c0-15.8,13-28.8,28.8-28.8h136.6c15.8,0,28.8,13,28.8,28.8v0
	C1715.7,520.4,1702.8,533.4,1686.9,533.4z"/>
<path class="st7" d="M1774.9,533.4L1774.9,533.4c-15.8,0-28.8-13-28.8-28.8v0c0-15.8,13-28.8,28.8-28.8h0c15.8,0,28.8,13,28.8,28.8
	v0C1803.6,520.4,1790.7,533.4,1774.9,533.4z"/>
<path class="st7" d="M1143.8,734.8L1143.8,734.8c5.3,0,9.6-4.3,9.6-9.6l0,0c0-5.3-4.3-9.6-9.6-9.6l0,0c-5.3,0-9.6,4.3-9.6,9.6l0,0
	C1134.1,730.5,1138.5,734.8,1143.8,734.8z"/>
<path class="st7" d="M1172.9,595.7h87.8c8.8,0,15.9,7.1,15.9,15.9v0c0,8.8-7.1,15.9-15.9,15.9h-87.8c2.7-4.7,4.3-10.1,4.3-15.9
	C1177.1,605.8,1175.6,600.4,1172.9,595.7z"/>
<path class="st7" d="M1308.4,613L1308.4,613c0-5.3-4.3-9.6-9.6-9.6l0,0c-5.3,0-9.6,4.3-9.6,9.6v0c0,5.3,4.3,9.6,9.6,9.6l0,0
	C1304,622.6,1308.4,618.3,1308.4,613z"/>
</svg>
